<?xml version="1.0"?>
<svg width="876.27165" height="661.47277" xmlns="http://www.w3.org/2000/svg" xmlns:svg="http://www.w3.org/2000/svg">
 <g class="layer">
  <title>Layer 1</title>
  <path d="m685.83,138.65c7.52,16 -8.41,20.53 -26.65,29.1s-31.9,17.95 -39.41,1.95s-13.62,-47.74 12.19,-59.87c26.7,-12.55 46.36,12.83 53.87,28.82z" fill="#2f2e41" id="svg_1" transform="translate(-180.86417 -106.46046)"/>
  <circle cx="467.75" cy="39.09" fill="#ffb8b8" id="svg_2" r="24.56"/>
  <path d="m770.29,254.47c-0.85,-1.11 -1.7,-2.2 -2.56,-3.26q-1.66,-2.07 -3.35,-4.01c-12.73,-14.69 -26.27,-23.94 -41.18,-24.93l-0.02,0l-0.22,-0.02l-29.71,28.96l-10.1,9.84l0.22,0.54l5.45,13.57l95.49,0a234.83,234.83 0 0 0 -14.02,-20.69z" fill="#2f2e41" id="svg_3" transform="translate(-180.86417 -106.46046)"/>
  <path d="m621.9,155.44l0,0l8.79,-4.13l-1.22,-12.69l5.88,10.5l4.2,-1.98l-0.71,-7.39l3.43,6.12l31.22,-14.67l0,0a26,26 0 0 0 -34.59,-12.48l-4.52,2.13a26,26 0 0 0 -12.48,34.59z" fill="#2f2e41" id="svg_4" transform="translate(-180.86417 -106.46046)"/>
  <path d="m825.39,601.26l-512.84,0a16.52,16.52 0 0 1 -16.5,-16.5l0,-308.15a12.1,12.1 0 0 1 12.09,-12.09l521.45,0a12.31,12.31 0 0 1 12.3,12.3l0,307.94a16.52,16.52 0 0 1 -16.5,16.5z" fill="#f2f2f2" id="svg_5" transform="translate(-180.86417 -106.46046)"/>
  <path d="m328.55,584.76l480.84,0a16,16 0 0 0 16,-16l0,-261.55a16,16 0 0 0 -16,-16l-480.84,0a16,16 0 0 0 -16,16l0,261.55a16,16 0 0 0 16,16z" fill="#fff" id="svg_6" transform="translate(-180.86417 -106.46046)"/>
  <path d="m841.66,275.66l-545.84,0l0,-8.4a16.57,16.57 0 0 1 16.56,-16.55l512.72,0a16.57,16.57 0 0 1 16.56,16.55l0,8.4z" fill="#ebb653" id="svg_7" transform="translate(-180.86417 -106.46046)"/>
  <circle cx="145.05" cy="156.75" fill="#fff" id="svg_8" r="4.28"/>
  <circle cx="161.31" cy="156.75" fill="#fff" id="svg_9" r="4.28"/>
  <circle cx="177.57" cy="156.75" fill="#fff" id="svg_10" r="4.28"/>
  <path d="m583.97,528.04l-43,0a9.51,9.51 0 0 1 -9.5,-9.5l0,-43a9.51,9.51 0 0 1 9.5,-9.5l43,0a9.51,9.51 0 0 1 9.5,9.5l0,43a9.51,9.51 0 0 1 -9.5,9.5zm-43,-60a7.51,7.51 0 0 0 -7.5,7.5l0,43a7.51,7.51 0 0 0 7.5,7.5l43,0a7.51,7.51 0 0 0 7.5,-7.5l0,-43a7.51,7.51 0 0 0 -7.5,-7.5l-43,0z" fill="#ccc" id="svg_11" transform="translate(-180.86417 -106.46046)"/>
  <path d="m575.47,516.04l-26,0a3,3 0 0 1 -3,-3l0,-32a3,3 0 0 1 3,-3l18.84,0a3.01,3.01 0 0 1 1.88,0.66l7.16,5.76a2.98,2.98 0 0 1 1.12,2.33l0,26.25a3,3 0 0 1 -3,3zm-26,-36a1,1 0 0 0 -1,1l0,32a1,1 0 0 0 1,1l26,0a1,1 0 0 0 1,-1l0,-26.25a0.99,0.99 0 0 0 -0.37,-0.78l-7.16,-5.75a1,1 0 0 0 -0.63,-0.22l-18.84,0z" fill="#ccc" id="svg_12" transform="translate(-180.86417 -106.46046)"/>
  <path d="m570.47,492.04l-16,0a1,1 0 0 1 0,-2l16,0a1,1 0 0 1 0,2z" fill="#ccc" id="svg_13" transform="translate(-180.86417 -106.46046)"/>
  <path d="m570.47,498.04l-16,0a1,1 0 0 1 0,-2l16,0a1,1 0 0 1 0,2z" fill="#ccc" id="svg_14" transform="translate(-180.86417 -106.46046)"/>
  <path d="m570.47,504.04l-16,0a1,1 0 0 1 0,-2l16,0a1,1 0 0 1 0,2z" fill="#ccc" id="svg_15" transform="translate(-180.86417 -106.46046)"/>
  <path d="m685.97,528.04l-43,0a9.51,9.51 0 0 1 -9.5,-9.5l0,-43a9.51,9.51 0 0 1 9.5,-9.5l43,0a9.51,9.51 0 0 1 9.5,9.5l0,43a9.51,9.51 0 0 1 -9.5,9.5zm-43,-60a7.51,7.51 0 0 0 -7.5,7.5l0,43a7.51,7.51 0 0 0 7.5,7.5l43,0a7.51,7.51 0 0 0 7.5,-7.5l0,-43a7.51,7.51 0 0 0 -7.5,-7.5l-43,0z" fill="#ccc" id="svg_16" transform="translate(-180.86417 -106.46046)"/>
  <path d="m678.47,508.04l-28,0a3,3 0 0 1 -3,-3l0,-16a3,3 0 0 1 3,-3l28,0a3,3 0 0 1 3,3l0,16a3,3 0 0 1 -3,3zm-28,-20a1,1 0 0 0 -1,1l0,16a1,1 0 0 0 1,1l28,0a1,1 0 0 0 1,-1l0,-16a1,1 0 0 0 -1,-1l-28,0z" fill="#ccc" id="svg_17" transform="translate(-180.86417 -106.46046)"/>
  <path d="m664.47,499.68a3,3 0 0 1 -1.59,-0.45l-14.94,-9.34a1,1 0 0 1 1.06,-1.7l14.95,9.34a1.01,1.01 0 0 0 1.05,0l14.94,-9.34a1,1 0 0 1 1.06,1.7l-14.93,9.34a3,3 0 0 1 -1.6,0.45z" fill="#ccc" id="svg_18" transform="translate(-180.86417 -106.46046)"/>
  <path d="m481.97,528.04l-43,0a9.51,9.51 0 0 1 -9.5,-9.5l0,-43a9.51,9.51 0 0 1 9.5,-9.5l43,0a9.51,9.51 0 0 1 9.5,9.5l0,43a9.51,9.51 0 0 1 -9.5,9.5zm-43,-60a7.51,7.51 0 0 0 -7.5,7.5l0,43a7.51,7.51 0 0 0 7.5,7.5l43,0a7.51,7.51 0 0 0 7.5,-7.5l0,-43a7.51,7.51 0 0 0 -7.5,-7.5l-43,0z" fill="#ccc" id="svg_19" transform="translate(-180.86417 -106.46046)"/>
  <path d="m474.47,508.04l-28,0a3,3 0 0 1 -3,-3l0,-16a3,3 0 0 1 3,-3l28,0a3,3 0 0 1 3,3l0,16a3,3 0 0 1 -3,3zm-28,-20a1,1 0 0 0 -1,1l0,16a1,1 0 0 0 1,1l28,0a1,1 0 0 0 1,-1l0,-16a1,1 0 0 0 -1,-1l-28,0z" fill="#ccc" id="svg_20" transform="translate(-180.86417 -106.46046)"/>
  <path d="m470.04,508.04l-20.13,0a2,2 0 0 1 -1.73,-3l6.06,-10.5a2,2 0 0 1 3.47,0l3.91,6.78l2.27,-3.93a2,2 0 0 1 3.46,0l4.42,7.65a2,2 0 0 1 -1.73,3zm0,-2l0,0l-4.42,-7.65l-3.13,5.43a1,1 0 0 1 -0.87,0.5l0,0a1,1 0 0 1 -0.86,-0.5l-4.79,-8.28l-6.06,10.5l20.13,0z" fill="#ccc" id="svg_21" transform="translate(-180.86417 -106.46046)"/>
  <circle cx="290.61" cy="385.58" fill="#ccc" id="svg_22" r="2"/>
  <polygon fill="#ffb8b8" id="svg_23" points="768.825 648.15 756.565 648.149 750.733 600.861 768.827 600.862 768.825 648.15"/>
  <path d="m952.82,766.49l-39.53,0l0,-0.5a15.39,15.39 0 0 1 15.38,-15.38l0,0l24.15,0l0,15.88z" fill="#2f2e41" id="svg_24" transform="translate(-180.86417 -106.46046)"/>
  <polygon fill="#ffb8b8" id="svg_25" points="818.825 648.15 806.565 648.149 800.733 600.861 818.827 600.862 818.825 648.15"/>
  <path d="m1002.82,766.49l-39.53,0l0,-0.5a15.39,15.39 0 0 1 15.38,-15.38l0,0l24.15,0l0,15.88z" fill="#2f2e41" id="svg_26" transform="translate(-180.86417 -106.46046)"/>
  <path d="m996.01,734.11l-11.35,-3.45a4.49,4.49 0 0 1 -3.17,-3.84l-10.58,-100.32a0.48,0.48 0 0 0 -0.48,-0.45a0.47,0.47 0 0 0 -0.51,0.41l-17.73,97.2a4.5,4.5 0 0 1 -5.34,3.6l-14.51,-2.99a4.52,4.52 0 0 1 -3.58,-4.71l10.79,-159.32l73.13,-7.89l-10.86,177.73a4.5,4.5 0 0 1 -4.49,4.23a4.53,4.53 0 0 1 -1.32,-0.2z" fill="#2f2e41" id="svg_27" transform="translate(-180.86417 -106.46046)"/>
  <circle cx="815.08" cy="290.49" fill="#ffb8b8" id="svg_28" r="24.56"/>
  <path d="m758.57,454.72l15.86,-99.85a37.86,37.86 0 0 1 48.01,-30.4l0,0a37.74,37.74 0 0 1 26.6,43.26l-16.59,89.17l-73.88,-2.18z" fill="#ccc" id="svg_29"/>
  <path d="m1002.73,579.05a10.06,10.06 0 0 0 1.74,-15.32l16.4,-31.76l-18.47,1.98l-12.74,29.84a10.11,10.11 0 0 0 13.06,15.26l0.01,0z" fill="#ffb8b8" id="svg_30" transform="translate(-180.86417 -106.46046)"/>
  <path d="m1006.24,558.13a4.51,4.51 0 0 1 -2.43,-1.16l-6.27,-5.79a4.51,4.51 0 0 1 -1.1,-5.06l12.54,-29.71l-1.78,-58.72a14.5,14.5 0 1 1 28.73,3.91l3.04,36.92a46.37,46.37 0 0 1 -8.94,31.39l-19.55,26.44a4.5,4.5 0 0 1 -3.19,1.8a4.45,4.45 0 0 1 -1.05,-0.02z" fill="#ccc" id="svg_31" transform="translate(-180.86417 -106.46046)"/>
  <path d="m854.51,383.57a10.06,10.06 0 0 0 13.42,7.58l22.85,27.48l5.38,-17.78l-22.52,-23.37a10.11,10.11 0 0 0 -19.13,6.09z" fill="#ffb8b8" id="svg_32" transform="translate(-180.86417 -106.46046)"/>
  <path d="m872.4,394.96a4.51,4.51 0 0 1 2.01,-1.79l7.78,-3.52a4.51,4.51 0 0 1 5.08,0.97l22.48,23.13l54.76,21.26a14.5,14.5 0 1 1 -14.8,24.92l-35.18,-11.59a46.37,46.37 0 0 1 -25.43,-20.47l-16.72,-28.31a4.5,4.5 0 0 1 -0.41,-3.65a4.45,4.45 0 0 1 0.43,-0.95z" fill="#ccc" id="svg_33" transform="translate(-180.86417 -106.46046)"/>
  <polygon id="svg_34" opacity="0.1" points="835.002 375.652 834.002 407.652 815.58 439.663 830.962 403.99 835.002 375.652"/>
  <path d="m993.13,401.56a6.42,6.42 0 0 1 -7.03,-4.7a9.76,9.76 0 0 0 -6.95,-7.27c-4.51,-1.03 -10.01,1.09 -13.31,-2.33a6.64,6.64 0 0 1 -1.58,-5.84c0.61,-3.31 2.98,-5.82 5.56,-7.82a34.06,34.06 0 0 1 18.87,-7.06a67.68,67.68 0 0 1 10.62,0.53a47.01,47.01 0 0 1 10.86,1.99a25.58,25.58 0 0 1 16.01,18.68a29.53,29.53 0 0 1 -6.06,24.13a31.7,31.7 0 0 1 -12.16,9.26a4.74,4.74 0 0 1 -3.61,0.18c-2.96,-1.18 -2.47,-4.84 -1.12,-7.28c1.44,-2.62 3.66,-5.15 2.5,-8.33a6.3,6.3 0 0 0 -3.13,-3.37c-2.94,-1.5 -6.23,-1.14 -9.39,-0.78l-0.08,0.01z" fill="#2f2e41" id="svg_35" transform="translate(-180.86417 -106.46046)"/>
  <path d="m846.3,415.43l-304,0a16.52,16.52 0 0 1 -16.5,-16.5l0,-65a16.52,16.52 0 0 1 16.5,-16.5l304,0a16.52,16.52 0 0 1 16.5,16.5l0,65a16.52,16.52 0 0 1 -16.5,16.5z" fill="#ebb653" id="svg_36" transform="translate(-180.86417 -106.46046)"/>
  <path d="m846.3,415.93l-304,0a17.02,17.02 0 0 1 -17,-17l0,-65a17.02,17.02 0 0 1 17,-17l304,0a17.02,17.02 0 0 1 17,17l0,65a17.02,17.02 0 0 1 -17,17zm-304,-97a15.02,15.02 0 0 0 -15,15l0,65a15.02,15.02 0 0 0 15,15l304,0a15.02,15.02 0 0 0 15,-15l0,-65a15.02,15.02 0 0 0 -15,-15l-304,0z" fill="#3f3d56" id="svg_37" transform="translate(-180.86417 -106.46046)"/>
  <path d="m809.3,399.43l-230,0a16.52,16.52 0 0 1 -16.5,-16.5l0,-34a16.52,16.52 0 0 1 16.5,-16.5l230,0a16.52,16.52 0 0 1 16.5,16.5l0,34a16.52,16.52 0 0 1 -16.5,16.5z" fill="#f2f2f2" id="svg_38" transform="translate(-180.86417 -106.46046)"/>
  <circle cx="447.93" cy="254.91" fill="#ebb653" id="svg_39" r="19.73"/>
  <path d="m795,397.44l-27.85,-23.36l-27.37,-22.95a4,4 0 0 0 -5.15,0.01l-27.29,23.06l-6.66,5.63l-10.05,-8.43l-30.54,-25.61a4,4 0 0 0 -5.15,0.01l-30.44,25.73l-30.91,26.13a1,1 0 0 0 0.64,1.77l63.39,-0.12l20.07,-0.04l-0.2,0.16l59.81,-0.11l57.06,-0.11a1,1 0 0 0 0.64,-1.77z" fill="#3f3d56" id="svg_40" transform="translate(-180.86417 -106.46046)"/>
  <path d="m1056.14,767.93l-192,0a1,1 0 0 1 0,-2l192,0a1,1 0 0 1 0,2z" fill="#ccc" id="svg_41" transform="translate(-180.86417 -106.46046)"/>
  <path d="m784.92,238.37a11.22,11.22 0 0 0 -7.25,-5.1a10.3,10.3 0 0 0 -1.66,-0.21l-76.19,-68.12a9.01,9.01 0 0 0 -5.63,-2.69a7.67,7.67 0 0 0 -1.27,-0.04a9.05,9.05 0 0 0 -5.96,15.48l29.17,25.43l47.9,41.75a11.92,11.92 0 0 0 0.35,2.33a11.27,11.27 0 0 0 9.67,8.37a11.09,11.09 0 0 0 6.05,-1a11.41,11.41 0 0 0 3.88,-2.97c0.11,-0.13 0.21,-0.25 0.31,-0.39a11.29,11.29 0 0 0 0.63,-12.84z" fill="#ffb8b8" id="svg_42" transform="translate(-180.86417 -106.46046)"/>
  <path d="m654.6,304.02l-0.71,-28.86l-0.6,-23.95l-0.41,-16.76l-0.81,-32.67a9.05,9.05 0 0 0 -15.71,-5.25a6.92,6.92 0 0 0 -0.75,0.96a8.94,8.94 0 0 0 -1.56,6.05l1.78,47.67l0.89,23.95l1.14,30.55a12.05,12.05 0 0 0 -0.89,1.41a11.25,11.25 0 0 0 -0.71,8.84a11.31,11.31 0 0 0 15.56,6.63a11.3,11.3 0 0 0 2.78,-18.57z" fill="#ffb8b8" id="svg_43" transform="translate(-180.86417 -106.46046)"/>
  <path d="m723.2,222.27l-7.07,-19.15l-11.44,-31.02a16.01,16.01 0 0 0 -9.95,-9.68c-0.18,-0.06 -0.37,-0.12 -0.55,-0.17a15.98,15.98 0 0 0 -13.24,1.82l-38.53,24.44a16.09,16.09 0 0 0 -5.27,21.75a276.32,276.32 0 0 0 15.73,24.19c4.49,6.11 12.85,6.76 14.3,16.76l28.41,0l28.76,-25.82l-1.15,-3.12z" fill="#ccc" id="svg_44" transform="translate(-180.86417 -106.46046)"/>
  <circle cx="101.16" cy="326.68" fill="#a0616a" id="svg_45" r="23.17"/>
  <path d="m338.92,417.19q0.34,0.28 0.66,0.58a10.38,10.38 0 0 1 -0.42,15.48a9.72,9.72 0 0 1 -0.81,0.62l1.57,52.94a8.06,8.06 0 0 1 -5.55,7.87l-0.09,0.02l-42.99,4.58a8.9,8.9 0 1 1 -1.72,-17.71l30.64,-2.7l5.3,-45.85a9.88,9.88 0 0 1 -0.97,-0.99a10.38,10.38 0 0 1 14.38,-14.84z" fill="#a0616a" id="svg_46" transform="translate(-180.86417 -106.46046)"/>
  <polygon fill="#a0616a" id="svg_47" points="139.328 649.174 150.895 649.174 156.397 604.561 139.326 604.561 139.328 649.174"/>
  <path d="m317.24,751.86l22.78,0l0,0a14.52,14.52 0 0 1 14.52,14.51l0,0.47l-37.3,0.01l0,-14.99z" fill="#2f2e41" id="svg_48" transform="translate(-180.86417 -106.46046)"/>
  <polygon fill="#a0616a" id="svg_49" points="24.366 633.182 34.304 639.099 61.857 603.582 47.189 594.849 24.366 633.182"/>
  <path d="m204.63,734.89l19.57,11.65l0,0a14.52,14.52 0 0 1 5.05,19.9l-0.25,0.41l-32.04,-19.08l7.67,-12.88z" fill="#2f2e41" id="svg_50" transform="translate(-180.86417 -106.46046)"/>
  <path d="m334.49,739.88l-12.95,0a4.24,4.24 0 0 1 -4.23,-3.8l-13.05,-122.74a1.42,1.42 0 0 0 -2.7,-0.43l-23.55,52.16l-41.71,68a4.27,4.27 0 0 1 -5.33,1.67l-16.66,-7.33a4.25,4.25 0 0 1 -1.93,-6.07l38.33,-64.19l11.76,-54.08c-3.7,-23.46 12.16,-58.33 12.32,-58.68l0.08,-0.17l43.66,-17.07l0.22,0.27c17.22,56.51 27.72,117.33 19.97,208.57a4.27,4.27 0 0 1 -4.23,3.89z" fill="#2f2e41" id="svg_51" transform="translate(-180.86417 -106.46046)"/>
  <path d="m273.11,549.93l-0.21,-0.42c-0.09,-0.21 -9.8,-20.69 -17.29,-42.57a32.29,32.29 0 0 1 2.24,-25.88a32.64,32.64 0 0 1 20.81,-16l0,0a32.68,32.68 0 0 1 37.93,19.57c5.94,14.84 4.05,30.69 2.27,43.15l-0.04,0.25l-0.23,0.11l-45.48,21.79z" fill="#ccc" id="svg_52" transform="translate(-180.86417 -106.46046)"/>
  <path d="m310.12,420.05l-36.79,0l0,-16.03c8.08,-3.21 15.98,-5.94 20.76,0a16.04,16.04 0 0 1 16.03,16.03z" fill="#2f2e41" id="svg_53" transform="translate(-180.86417 -106.46046)"/>
  <path d="m271.29,401.18c-21.99,0 -28.15,27.58 -28.15,43.13c0,8.67 3.92,11.78 10.09,12.83l2.17,-11.61l5.1,12.11c1.74,0.01 3.55,-0.03 5.44,-0.06l1.73,-3.56l3.85,3.49c15.45,0.03 27.93,2.28 27.93,-13.2c0,-15.55 -5.4,-43.13 -28.16,-43.13z" fill="#2f2e41" id="svg_54" transform="translate(-180.86417 -106.46046)"/>
  <path d="m373.86,767.93l-192,0a1,1 0 1 1 0,-2l192,0a1,1 0 0 1 0,2z" fill="#ccc" id="svg_55" transform="translate(-180.86417 -106.46046)"/>
  <path d="m377.47,438.93l-43,0a9.51,9.51 0 0 1 -9.5,-9.5l0,-43a9.51,9.51 0 0 1 9.5,-9.5l43,0a9.51,9.51 0 0 1 9.5,9.5l0,43a9.51,9.51 0 0 1 -9.5,9.5z" fill="#fff" id="svg_56" transform="translate(-180.86417 -106.46046)"/>
  <path d="m377.47,438.93l-43,0a9.51,9.51 0 0 1 -9.5,-9.5l0,-43a9.51,9.51 0 0 1 9.5,-9.5l43,0a9.51,9.51 0 0 1 9.5,9.5l0,43a9.51,9.51 0 0 1 -9.5,9.5zm-43,-60a7.51,7.51 0 0 0 -7.5,7.5l0,43a7.51,7.51 0 0 0 7.5,7.5l43,0a7.51,7.51 0 0 0 7.5,-7.5l0,-43a7.51,7.51 0 0 0 -7.5,-7.5l-43,0z" fill="#3f3d56" id="svg_57" transform="translate(-180.86417 -106.46046)"/>
  <path d="m369.97,421.43l-28,0a3,3 0 0 1 -3,-3l0,-21a3,3 0 0 1 3,-3l7.89,0a2.98,2.98 0 0 1 2.55,1.43l2.2,3.57l15.36,0a3,3 0 0 1 3,3l0,16a3,3 0 0 1 -3,3z" fill="#ebb653" id="svg_58" transform="translate(-180.86417 -106.46046)"/>
  <path d="m369.06,432.04q0.21,0.39 0.39,0.79a10.38,10.38 0 0 1 -6.39,14.11a9.72,9.72 0 0 1 -0.99,0.25l-19.1,49.41a8.06,8.06 0 0 1 -8.16,5.09l-0.1,-0.01l-41.39,-12.47a8.9,8.9 0 1 1 5.28,-16.99l29.29,9.4l22.68,-40.2a9.88,9.88 0 0 1 -0.51,-1.29a10.38,10.38 0 0 1 19,-8.09z" fill="#a0616a" id="svg_59" transform="translate(-180.86417 -106.46046)"/>
 </g>

</svg>